<svg width="249" height="241" viewBox="0 0 249 241" fill="none" xmlns="http://www.w3.org/2000/svg">
<ellipse cx="125.753" cy="211.934" rx="85.1717" ry="3.75758" fill="#D8D8D8"/>
<path fill-rule="evenodd" clip-rule="evenodd" d="M48.0967 29.3081C48.0967 27.099 49.8875 25.3081 52.0967 25.3081H200.767C202.976 25.3081 204.767 27.099 204.767 29.3081V68.9041C204.767 71.1132 202.976 72.9041 200.767 72.9041H52.0967C49.8875 72.9041 48.0967 71.1132 48.0967 68.9041V29.3081ZM48.0967 84.8359C48.0967 82.6268 49.8875 80.8359 52.0967 80.8359H200.767C202.976 80.8359 204.767 82.6268 204.767 84.8359V124.432C204.767 126.641 202.976 128.432 200.767 128.432H52.0967C49.8875 128.432 48.0967 126.641 48.0967 124.432V84.8359ZM52.0967 136.366C49.8875 136.366 48.0967 138.157 48.0967 140.366V179.962C48.0967 182.171 49.8875 183.962 52.0967 183.962H200.767C202.976 183.962 204.767 182.171 204.767 179.962V140.366C204.767 138.157 202.976 136.366 200.767 136.366H52.0967Z" fill="#A3A6B7"/>
<path fill-rule="evenodd" clip-rule="evenodd" d="M127.28 72.9041C128.67 67.182 129.407 61.2044 129.407 55.0548C129.407 44.4906 127.233 34.434 123.308 25.3081H200.767C202.976 25.3081 204.767 27.099 204.767 29.3081V68.9041C204.767 71.1132 202.976 72.9041 200.767 72.9041H127.28ZM71.2954 128.432C96.151 122.612 116.271 104.489 124.882 80.8359H200.767C202.976 80.8359 204.767 82.6268 204.767 84.8359V124.432C204.767 126.641 202.976 128.432 200.767 128.432H71.2954ZM48.0967 140.366C48.0967 138.157 49.8875 136.366 52.0967 136.366H200.767C202.976 136.366 204.767 138.157 204.767 140.366V179.962C204.767 182.171 202.976 183.962 200.767 183.962H52.0967C49.8875 183.962 48.0967 182.171 48.0967 179.962V140.366Z" fill="#797C8C"/>
<path fill-rule="evenodd" clip-rule="evenodd" d="M184.876 72.9041C184.916 71.5865 184.935 70.264 184.935 68.937C184.935 53.6392 182.311 38.9543 177.488 25.3081H200.767C202.976 25.3081 204.767 27.099 204.767 29.3081V68.9041C204.767 71.1132 202.976 72.9041 200.767 72.9041H184.876ZM170.664 128.432C178.08 113.924 182.869 97.8492 184.402 80.8359H200.767C202.976 80.8359 204.767 82.6268 204.767 84.8359V124.432C204.767 126.641 202.976 128.432 200.767 128.432H170.664ZM116.558 183.962C137.056 172.798 154.239 156.315 166.253 136.366H200.767C202.976 136.366 204.767 138.157 204.767 140.366V179.962C204.767 182.171 202.976 183.962 200.767 183.962H116.558Z" fill="#626574"/>
<circle cx="71.8946" cy="49.1069" r="7.93266" fill="white"/>
<circle cx="71.8946" cy="104.635" r="7.93266" fill="white"/>
<circle cx="71.8946" cy="160.163" r="7.93266" fill="white"/>
</svg>
