<svg width="248" height="248" viewBox="0 0 248 248" fill="none" xmlns="http://www.w3.org/2000/svg">
<ellipse cx="125.292" cy="222.598" rx="81.375" ry="3.875" fill="#D8D8D8"/>
<path fill-rule="evenodd" clip-rule="evenodd" d="M123.998 20.666C96.1032 20.666 62.5301 26.9829 34.6775 40.8703C34.004 41.2061 33.5829 41.8637 33.583 42.6163C33.5879 74.0683 34.3417 149.125 122.981 200.909C123.598 201.269 124.397 201.269 125.014 200.909C213.656 149.125 214.411 74.0683 214.416 42.6164C214.416 41.8637 213.995 41.2061 213.322 40.8703C185.467 26.9829 151.894 20.666 123.998 20.666Z" fill="#4E8C5D"/>
<path fill-rule="evenodd" clip-rule="evenodd" d="M86.5991 174.331C144.322 165.665 188.583 115.864 188.583 55.7252C188.583 46.8991 187.629 38.2956 185.82 30.0122C164.996 23.646 143.158 20.666 123.997 20.666C96.1027 20.666 62.5296 26.9829 34.677 40.8703C34.0035 41.2061 33.5824 41.8637 33.5825 42.6163C33.5866 68.9979 34.1176 126.059 86.5991 174.331Z" fill="#5B9F6B"/>
<path d="M140.607 91.7241C140.607 83.113 133.226 76.0215 123.736 76.0215C114.774 76.0215 107.393 83.113 107.393 91.7241C107.393 97.8025 110.556 103.374 116.355 105.907V120.09C116.355 124.142 119.518 127.688 123.736 127.688C128.481 127.688 131.644 124.142 131.644 120.09V105.907C136.916 103.374 140.607 97.8025 140.607 91.7241Z" fill="white"/>
<path fill-rule="evenodd" clip-rule="evenodd" d="M57.5701 101.856C91.2003 101.856 118.463 74.5935 118.463 40.9633C118.463 33.9244 117.269 27.1644 115.072 20.875C89.1426 22.0704 59.6166 28.4356 34.677 40.8705C34.0035 41.2064 33.5824 41.8639 33.5825 42.6166C33.5845 55.6325 33.7148 76.1161 40.1489 99.3276C45.6684 100.973 51.5161 101.856 57.5701 101.856Z" fill="#67B279"/>
</svg>
